<svg xmlns="http://www.w3.org/2000/svg" viewBox="0 0 600 450" preserveAspectRatio="xMidYMid slice">
  <defs>
    <linearGradient id="gg" x1="0" y1="0" x2="0" y2="1">
      <stop offset="0%" stop-color="#132a44"/><stop offset="100%" stop-color="#0a1b12"/>
    </linearGradient>
    <pattern id="net" width="18" height="18" patternUnits="userSpaceOnUse">
      <path d="M0 0 L18 18 M18 0 L0 18" stroke="#ffffff" stroke-opacity="0.22" stroke-width="1.5"/>
    </pattern>
  </defs>
  <rect width="600" height="450" fill="url(#gg)"/>
  <rect x="70" y="90" width="460" height="250" fill="url(#net)"/>
  <g stroke="#f1f5f9" stroke-width="10" fill="none" stroke-linecap="round">
    <path d="M70 340 L70 90 L530 90 L530 340"/>
  </g>
  <rect y="340" width="600" height="110" fill="#14512c"/>
  <!-- ball hitting net -->
  <g transform="translate(430 190)">
    <circle r="34" fill="#f8fafc"/>
    <path d="M0 -17 L15 -7 L9 11 L-9 11 L-15 -7 Z" fill="#111827"/>
  </g>
  <g stroke="#facc15" stroke-width="5" stroke-linecap="round" opacity="0.8">
    <path d="M370 170 L310 150"/><path d="M372 196 L300 196"/><path d="M372 216 L312 238"/>
  </g>
  <!-- celebrating player silhouette -->
  <g fill="#0b1220">
    <circle cx="170" cy="168" r="26"/>
    <path d="M150 198 L190 198 L204 300 L184 300 L170 244 L156 300 L136 300 Z"/>
    <path d="M152 206 L108 150 L96 160 L138 226 Z"/>
    <path d="M188 206 L232 150 L244 160 L202 226 Z"/>
    <path d="M156 300 L140 380 L162 380 L176 306 Z"/>
    <path d="M184 300 L200 380 L222 380 L204 306 Z"/>
  </g>
</svg>
