<svg xmlns="http://www.w3.org/2000/svg" viewBox="0 0 600 450" preserveAspectRatio="xMidYMid slice">
  <defs>
    <linearGradient id="dusk" x1="0" y1="0" x2="0" y2="1">
      <stop offset="0%" stop-color="#f59e0b"/><stop offset="45%" stop-color="#b45309"/>
      <stop offset="100%" stop-color="#3b2412"/>
    </linearGradient>
  </defs>
  <rect width="600" height="450" fill="url(#dusk)"/>
  <circle cx="470" cy="150" r="58" fill="#fde68a" opacity="0.85"/>
  <!-- panel houses -->
  <g fill="#2a1a12" opacity="0.9">
    <rect x="0" y="130" width="120" height="200"/>
    <rect x="130" y="90" width="100" height="240"/>
    <rect x="245" y="150" width="90" height="180"/>
    <rect x="350" y="110" width="110" height="220"/>
    <rect x="475" y="165" width="125" height="165"/>
  </g>
  <g fill="#fcd34d" opacity="0.75">
    <rect x="18" y="152" width="14" height="18"/><rect x="52" y="188" width="14" height="18"/>
    <rect x="86" y="152" width="14" height="18"/><rect x="150" y="120" width="14" height="18"/>
    <rect x="186" y="170" width="14" height="18"/><rect x="262" y="180" width="14" height="18"/>
    <rect x="300" y="228" width="14" height="18"/><rect x="372" y="140" width="14" height="18"/>
    <rect x="418" y="196" width="14" height="18"/><rect x="500" y="200" width="14" height="18"/>
    <rect x="548" y="248" width="14" height="18"/>
  </g>
  <!-- dusty ground -->
  <rect y="330" width="600" height="120" fill="#7c5a3a"/>
  <path d="M0 330 Q150 318 300 332 T600 330 L600 360 L0 360 Z" fill="#8b6845"/>
  <!-- makeshift goal from bricks -->
  <g fill="#4b3320">
    <rect x="60" y="292" width="26" height="40" rx="3"/>
    <rect x="210" y="292" width="26" height="40" rx="3"/>
  </g>
  <!-- kid with ball -->
  <g fill="#231508">
    <circle cx="380" cy="252" r="20"/>
    <path d="M364 276 L396 276 L406 348 L390 348 L380 306 L370 348 L354 348 Z"/>
    <path d="M366 282 L336 320 L326 312 L356 270 Z"/>
    <path d="M370 348 L360 404 L378 404 L388 352 Z"/>
    <path d="M390 348 L404 404 L422 404 L404 352 Z"/>
  </g>
  <g transform="translate(316 380)">
    <circle r="26" fill="#f5f5f4"/>
    <path d="M0 -13 L11 -5 L7 8 L-7 8 L-11 -5 Z" fill="#292524"/>
  </g>
  <ellipse cx="380" cy="412" rx="70" ry="10" fill="#000000" opacity="0.25"/>
</svg>
